<?xml version="1.0" encoding="UTF-8"?>
<svg id="Layer_2" data-name="Layer 2" xmlns="http://www.w3.org/2000/svg" viewBox="0 0 557 530">
	<g id="Layer_1-2" data-name="Layer 1">
		<path class="cls-1" d="M447.31,237.64c-.14,29.18-7.58,57.98-21.94,85.01-1.6,3.02-3.07,6.08-4.25,9.29-3.38,9.21-1.86,17.46,4.66,24.85,3.04,3.45,6.42,6.53,9.79,9.63,17.37,15.98,33.6,33.09,50.05,49.98,4.33,4.44,8.83,8.76,12.24,14.02,5.13,7.89,7.96,16.25,5.61,25.78-2.65,10.78-16.41,26.14-32.86,23.83-8.61-1.21-15.68-5.52-21.84-11.27-9.63-8.98-18.98-18.25-28.45-27.39-11.99-11.57-23.62-23.51-34.8-35.87-2.18-2.41-4.52-4.65-7.09-6.67-5.95-4.67-12.48-5.56-19.53-3.17-3.26,1.11-6.35,2.58-9.38,4.27-30.34,16.94-62.91,24.77-97.59,22.94-42.43-2.23-79.86-17.5-112.02-45.2-31.63-27.24-52.1-61.44-60.48-102.33-11.71-57.14,.81-109.08,36.74-154.82,28.01-35.66,64.94-57.9,109.52-66.32,89.32-16.87,172.09,29.68,206.68,109.63,9.98,23.07,14.8,47.23,14.92,73.8Zm-308.7-1.35c.02,68.46,54.67,123.54,122.48,123.81,66.64,.27,125.02-56.04,123.25-126.72-1.68-66.99-56.61-119.55-122.81-119.47-68.56,.07-122.94,54.17-122.92,122.38Z"/>
	</g>
</svg>